<svg preserveAspectRatio="none" overflow="visible" style="display: block;" width="18" height="18" viewBox="0 0 18 18" fill="none" xmlns="http://www.w3.org/2000/svg">
<path id="Vector" d="M13.5 9.32812C13.7652 9.32812 14.0195 9.43362 14.207 9.62109L17 12.4141V16C17 16.5523 16.5523 17 16 17H5.41406L12.793 9.62109C12.9805 9.43362 13.2348 9.32813 13.5 9.32812ZM2 1H16C16.5523 1 17 1.44771 17 2V9.58594L15.6211 8.20703V8.20605C15.0585 7.64375 14.2954 7.32812 13.5 7.32812C12.7046 7.32813 11.9415 7.64375 11.3789 8.20605V8.20703L2.58594 17H2C1.44771 17 1 16.5523 1 16V2C1 1.44772 1.44772 1 2 1ZM7 6C7 6.55229 6.55229 7 6 7C5.44772 7 5 6.55229 5 6C5 5.44772 5.44772 5 6 5C6.55229 5 7 5.44772 7 6ZM9 6C9 4.34315 7.65685 3 6 3C4.34315 3 3 4.34315 3 6C3 7.65685 4.34315 9 6 9C7.65685 9 9 7.65685 9 6Z" stroke="#8B5CF6" stroke-width="2" stroke-linecap="round"/>
</svg>
